<svg xmlns="http://www.w3.org/2000/svg" viewBox="0 0 200 250" fill="white">
  <!-- Main swoosh - thin sharp point at top, sweeping left then down-right, widening -->
  <path d="
    M 105 5
    C 100 5, 55 30, 40 75
    C 25 120, 35 170, 65 205
    C 75 218, 88 225, 100 218
    C 108 213, 108 205, 100 198
    C 78 175, 60 145, 58 110
    C 56 78, 68 48, 92 30
    C 98 25, 102 15, 105 5
    Z
  "/>
  <!-- Head (circle) -->
  <circle cx="115" cy="58" r="14"/>
  <!-- Lower arm/crescent curve - open C shape facing right -->
  <path d="
    M 100 90
    C 95 85, 90 82, 88 88
    C 82 100, 85 120, 100 135
    C 110 145, 125 142, 132 132
    C 138 123, 138 112, 132 103
    C 127 95, 120 95, 116 100
    C 112 105, 115 115, 122 120
    C 126 123, 128 118, 126 112
    C 124 106, 118 102, 112 104
    C 108 98, 104 94, 100 90
    Z
  "/>
</svg>
