<svg xmlns="http://www.w3.org/2000/svg" viewBox="0 0 200 240" fill="white">
  <!-- Head (circle) -->
  <circle cx="112" cy="32" r="16"/>
  <!-- Main swoosh - large flowing curve from top-left sweeping down -->
  <path d="
    M 95 8
    C 60 8, 28 50, 28 100
    C 28 145, 50 185, 80 210
    C 90 218, 102 220, 110 212
    C 115 207, 112 198, 105 192
    C 82 172, 62 145, 58 110
    C 54 80, 62 52, 85 35
    C 90 31, 92 28, 95 8
    Z
  "/>
  <!-- Inner crescent / arm curve -->
  <path d="
    M 108 72
    C 130 58, 158 72, 155 100
    C 153 118, 140 130, 125 128
    C 115 126, 108 116, 112 105
    C 115 96, 122 90, 128 92
    C 122 82, 112 78, 108 72
    Z
  "/>
</svg>
